<svg xmlns="http://www.w3.org/2000/svg"  viewBox="0 0 64 64" width="64px" height="64px"><path d="M56.177,16.832c-0.547-4.731-4.278-8.462-9.009-9.009C43.375,7.384,38.264,7,32,7S20.625,7.384,16.832,7.823	c-4.731,0.547-8.462,4.278-9.009,9.009C7.384,20.625,7,25.736,7,32s0.384,11.375,0.823,15.168c0.547,4.731,4.278,8.462,9.009,9.009	C20.625,56.616,25.736,57,32,57s11.375-0.384,15.168-0.823c4.731-0.547,8.462-4.278,9.009-9.009C56.616,43.375,57,38.264,57,32	S56.616,20.625,56.177,16.832z M46.81,45.736c-1.808-3.236-3.902-3.331-6.091-2.474c-2.189,0.857-4.565,2.094-8.467,2.284	C21.118,46.211,16.57,39.147,14,35.626c10.087,6.186,15.873,2.685,18.537,1.828c-7.042-4.283-15.417-16.94-15.417-16.94	s9.802,7.71,12.847,9.802c-1.713-1.713-6.642-8.395-8.355-11.44c2.379,2.759,12.923,11.25,15.778,13.156	c1.251-7.343-0.293-10.348-2.958-15.677c12.817,9.055,9.807,20.531,9.807,20.531C47.286,40.026,47.191,42.785,46.81,45.736z"/></svg>